<?xml version="1.0" encoding="UTF-8" standalone="no"?>
<svg width="750px" height="1334px" viewBox="0 0 750 1334" version="1.1" xmlns="http://www.w3.org/2000/svg" xmlns:xlink="http://www.w3.org/1999/xlink" style="background: #FFFFFF;">
    <!-- Generator: Sketch 39 (31667) - http://www.bohemiancoding.com/sketch -->
    <title>404页面</title>
    <desc>Created with Sketch.</desc>
    <defs>
        <polygon id="path-1" points="146.665171 0.154 0.0846606801 0.154 0.0846606801 198.380813 146.665171 198.380813 146.665171 0.154"></polygon>
        <polygon id="path-3" points="69.8579929 0.9748 77.43 43.79 0.673 43.79 7.32959904 0.9748 69.8579929 0.9748"></polygon>
        <polygon id="path-5" points="0.673 68.79 77.43 68.79 65.332 0.383 11.319 0.315"></polygon>
        <polygon id="path-7" points="0.196493117 40.2231606 22.221 19.051 39.8286187 0.706910743 39.8286187 32.9042324 32.4812535 40.2231606 0.196493117 40.2231606"></polygon>
        <path d="M3.04368292,0.572997735 L1.198,2.469 C0.16,3.534 1.759,6.773 4.769,9.704 L29.11,33.4 C32.12,36.33 35.401,37.842 36.439,36.775 L38.9110258,34.2360931 L38.9110258,25.9159433 C38.5317839,25.4772412 38.1177855,25.0372557 37.673,24.604 L13.331,0.908 C13.2140904,0.794168306 13.0967693,0.68247821 12.9791843,0.572997735 L3.04368292,0.572997735 L3.04368292,0.572997735 Z" id="path-9"></path>
        <polygon id="path-11" points="0.779640715 0.740376104 23.891 14.512 49.0998008 30.9399555 49.0998008 4.06085765 43.8010421 0.740376104 0.779640715 0.740376104"></polygon>
        <path d="M0.146589645,31.6301804 L17.286,3.322 C17.8850543,2.33213411 18.531226,1.44132533 19.1797121,0.686224883 L27.6187434,0.686224883 L29.421,1.777 C30.694,2.549 29.961,6.086 27.786,9.68 L10.192,38.739 C8.017,42.332 5.221,44.62 3.949,43.85 L0.146589645,41.547777 L0.146589645,31.6301804 L0.146589645,31.6301804 Z" id="path-13"></path>
    </defs>
    <g id="Page-1" stroke="none" stroke-width="1" fill="none" fill-rule="evenodd">
        <g id="404页面">
            <g id="Page-1" transform="translate(-122.000000, 198.000000)">
                <g id="Group-79" transform="translate(205.000000, 0.846000)">
                    <g id="Group-5" transform="translate(0.000000, 369.000000)" fill-opacity="0.2">
                        <polygon id="Fill-1" fill="#0581D6" points="276.3372 519.5016 329.7472 500.7956 357.5362 507.7096 381.4992 488.5766 408.2102 488.5766 408.2102 467.8286 433.2982 475.8326 427.8432 452.4266 466.5392 439.7606 471.2882 386.3496 515.6062 363.2886 480.2362 287.3546 557.6552 244.4046 502.1872 221.2416 518.3722 187.1036 475.4132 177.7656 475.4132 153.1856 436.7592 149.8846 448.6422 86.1836 410.9442 98.3906 408.3282 52.5396 328.7942 73.3076 340.6952 27.2896 275.7542 36.6456 245.5962 3.3456 219.1242 50.6176 183.0442 27.4626 181.9292 70.4066 144.2702 73.9856 148.9602 101.7196 135.3762 95.7166 147.2722 139.4876 94.4152 137.8316 100.0962 183.5326 89.7492 197.7156 47.1912 181.2906 50.3082 210.8326 8.3352 232.0986 19.0702 289.0796 3.8042 305.8826 31.5282 321.0096 31.5282 363.6026 102.7572 356.6266 87.5602 363.6026 111.2202 381.3576 78.1182 391.3976 121.2482 402.3256 115.1112 427.7396 157.8912 453.3576 139.7082 507.4386 178.0742 486.1876 194.4232 500.7956 268.5152 500.7956"></polygon>
                        <path d="M195.5679,497.7949 L268.5159,497.7949 C269.7259,497.7949 270.8169,498.5219 271.2829,499.6379 L278.0139,515.7349 L328.7559,497.9629 C329.3089,497.7709 329.9049,497.7419 330.4719,497.8839 L356.8229,504.4409 L379.6279,486.2329 C380.1589,485.8079 380.8189,485.5769 381.4999,485.5769 L405.2099,485.5769 L405.2099,467.8279 C405.2099,466.8709 405.6669,465.9709 406.4399,465.4059 C407.2139,464.8409 408.2119,464.6799 409.1219,464.9699 L429.1769,471.3689 L424.9219,453.1069 C424.5679,451.5919 425.4319,450.0589 426.9099,449.5749 L463.7259,437.5239 L468.2989,386.0839 C468.3899,385.0639 468.9949,384.1609 469.9029,383.6879 L511.6749,361.9529 L477.5169,288.6219 C476.8519,287.1939 477.4029,285.4959 478.7799,284.7319 L550.7839,244.7859 L501.0299,224.0109 C500.2739,223.6939 499.6789,223.0829 499.3849,222.3159 C499.0919,221.5509 499.1249,220.6979 499.4759,219.9569 L514.0429,189.2329 L474.7759,180.6969 C473.3969,180.3979 472.4129,179.1769 472.4129,177.7659 L472.4129,155.9409 L436.5039,152.8739 C435.6589,152.8019 434.8849,152.3759 434.3719,151.7019 C433.8589,151.0269 433.6539,150.1679 433.8099,149.3349 L444.7689,90.5909 L411.8679,101.2439 C410.9849,101.5299 410.0169,101.3909 409.2489,100.8659 C408.4819,100.3399 408.0019,99.4889 407.9489,98.5609 L405.5419,56.3679 L329.5519,76.2109 C328.5239,76.4789 327.4269,76.1829 326.6749,75.4309 C325.9219,74.6799 325.6229,73.5869 325.8899,72.5569 L336.6629,30.9019 L276.1819,39.6149 C275.1989,39.7579 274.2019,39.3989 273.5309,38.6589 L246.1739,8.4539 L221.7419,52.0829 C221.3379,52.8049 220.6539,53.3269 219.8519,53.5279 C219.0509,53.7279 218.2009,53.5889 217.5049,53.1419 L185.9049,32.8629 L184.9279,70.4839 C184.8879,72.0019 183.7229,73.2499 182.2129,73.3929 L147.7659,76.6669 L151.9179,101.2199 C152.1019,102.3079 151.6729,103.4099 150.8019,104.0879 C149.9319,104.7649 148.7579,104.9109 147.7479,104.4639 L139.9229,101.0059 L150.1669,138.7009 C150.4169,139.6179 150.2159,140.5999 149.6269,141.3469 C149.0369,142.0929 148.1189,142.5129 147.1779,142.4859 L97.8249,140.9399 L103.0729,183.1619 C103.1679,183.9199 102.9699,184.6839 102.5199,185.2999 L92.1719,199.4829 C91.3729,200.5799 89.9359,201.0039 88.6689,200.5139 L50.6899,185.8569 L53.2909,210.5179 C53.4219,211.7559 52.7739,212.9459 51.6639,213.5089 L11.6999,233.7569 L22.0189,288.5239 C22.1929,289.4479 21.9239,290.4009 21.2909,291.0969 L8.5899,305.0769 L32.9649,318.3759 C33.9289,318.9019 34.5279,319.9119 34.5279,321.0099 L34.5279,360.2949 L102.4639,353.6399 C103.9229,353.4929 105.2709,354.4289 105.6529,355.8429 C106.0349,357.2569 105.3399,358.7409 104.0079,359.3529 L93.3909,364.2269 L113.0219,378.9579 C113.9249,379.6359 114.3719,380.7659 114.1749,381.8789 C113.9789,382.9919 113.1729,383.8999 112.0909,384.2289 L89.3089,391.1379 L121.9849,399.4169 C123.5779,399.8209 124.5499,401.4319 124.1639,403.0289 L118.5449,426.2999 L159.4319,450.7839 C160.6419,451.5079 161.1839,452.9779 160.7349,454.3139 L145.0149,501.0699 L176.6209,483.5639 C177.7369,482.9459 179.1209,483.1019 180.0739,483.9509 L195.5679,497.7949 Z M276.3379,522.5019 C275.1599,522.5019 274.0479,521.8039 273.5699,520.6589 L266.5189,503.7949 L194.4229,503.7949 C193.6859,503.7949 192.9739,503.5239 192.4239,503.0319 L177.6649,489.8449 L141.1619,510.0639 C140.0799,510.6629 138.7399,510.5359 137.7879,509.7439 C136.8369,508.9519 136.4699,507.6559 136.8649,506.4829 L154.2779,454.6909 L113.5699,430.3139 C112.4439,429.6399 111.8869,428.3119 112.1949,427.0359 L117.6349,404.5049 L77.3809,394.3059 C76.0749,393.9749 75.1509,392.8139 75.1189,391.4669 C75.0879,390.1199 75.9589,388.9179 77.2479,388.5259 L104.6859,380.2049 L85.7589,366.0019 C84.9139,365.3679 84.4639,364.3349 84.5769,363.2829 C84.6599,362.5099 85.0379,361.8109 85.6139,361.3189 L31.8209,366.5879 C30.9789,366.6709 30.1409,366.3939 29.5129,365.8249 C28.8859,365.2559 28.5279,364.4489 28.5279,363.6029 L28.5279,322.7909 L2.3669,308.5169 C1.5589,308.0759 0.9979,307.2889 0.8449,306.3809 C0.6929,305.4739 0.9639,304.5459 1.5839,303.8649 L15.8459,288.1679 L5.3869,232.6549 C5.1399,231.3429 5.7889,230.0259 6.9789,229.4229 L47.1079,209.0909 L44.2079,181.6059 C44.0979,180.5659 44.5369,179.5449 45.3659,178.9089 C46.1959,178.2739 47.2969,178.1169 48.2709,178.4919 L88.6819,194.0879 L96.9729,182.7239 L91.4379,138.2009 C91.3299,137.3309 91.6079,136.4579 92.1979,135.8099 C92.7889,135.1629 93.6389,134.7969 94.5089,134.8329 L143.3139,136.3619 L132.4819,96.5029 C132.1779,95.3869 132.5439,94.1959 133.4209,93.4419 C134.2979,92.6879 135.5309,92.5059 136.5889,92.9729 L145.0719,96.7219 L141.3119,74.4859 C141.1729,73.6639 141.3819,72.8209 141.8899,72.1599 C142.3969,71.4979 143.1559,71.0779 143.9859,70.9989 L178.9989,67.6719 L180.0449,27.3849 C180.0729,26.3019 180.6829,25.3189 181.6399,24.8119 C182.5969,24.3049 183.7529,24.3529 184.6639,24.9379 L218.0639,46.3719 L242.9789,1.8799 C243.4509,1.0379 244.2989,0.4739 245.2589,0.3649 C246.2149,0.2549 247.1709,0.6159 247.8199,1.3329 L276.9069,33.4489 L340.2679,24.3209 C341.2619,24.1779 342.2609,24.5409 342.9299,25.2889 C343.5999,26.0359 343.8509,27.0689 343.5999,28.0409 L332.9769,69.1149 L407.5709,49.6369 C408.4409,49.4129 409.3679,49.5849 410.0939,50.1149 C410.8209,50.6439 411.2729,51.4709 411.3239,52.3689 L413.7179,94.3389 L447.7179,83.3299 C448.7269,83.0029 449.8289,83.2319 450.6229,83.9299 C451.4179,84.6279 451.7859,85.6939 451.5919,86.7339 L440.3159,147.1779 L475.6679,150.1969 C477.2199,150.3299 478.4129,151.6279 478.4129,153.1859 L478.4129,175.3479 L519.0099,184.1719 C519.9039,184.3669 520.6609,184.9589 521.0649,185.7799 C521.4689,186.6019 521.4759,187.5619 521.0839,188.3889 L506.2449,219.6859 L558.8119,241.6359 C559.8729,242.0799 560.5879,243.0899 560.6509,244.2379 C560.7149,245.3869 560.1169,246.4699 559.1109,247.0279 L484.1359,288.6219 L518.3259,362.0219 C519.0039,363.4779 518.4159,365.2089 516.9909,365.9499 L474.1299,388.2519 L469.5269,440.0259 C469.4209,441.2209 468.6119,442.2379 467.4719,442.6109 L431.3889,454.4219 L436.2199,475.1519 C436.4639,476.2029 436.1259,477.3049 435.3329,478.0369 C434.5399,478.7689 433.4149,479.0199 432.3859,478.6909 L411.2099,471.9339 L411.2099,488.5769 C411.2099,490.2339 409.8669,491.5769 408.2099,491.5769 L382.5499,491.5769 L359.4089,510.0539 C358.6779,510.6379 357.7209,510.8469 356.8119,510.6209 L329.8929,503.9229 L277.3289,522.3329 C277.0019,522.4469 276.6669,522.5019 276.3379,522.5019 L276.3379,522.5019 Z" id="Fill-3" fill="#76EF9F"></path>
                    </g>
                    <g id="Group-8" transform="translate(213.000000, 0.000000)">
                        <mask id="mask-2" fill="white">
                            <use xlink:href="#path-1"></use>
                        </mask>
                        <g id="Clip-7"></g>
                        <path d="M61.8437,106.5112 C52.4517,115.3722 37.9007,115.4172 29.6407,106.6072 C21.3417,97.7562 22.2347,83.3122 31.6267,74.4512 C41.0507,65.5612 55.4317,65.5422 63.7887,74.4072 C72.1467,83.2732 71.2777,97.6092 61.8437,106.5112 M109.0797,1.9482 C106.7707,-0.4898 107.5207,-0.2118 104.7677,1.3982 C83.2337,13.9932 61.7077,26.6022 40.2147,39.2682 C35.6147,41.9802 30.8347,44.3512 26.4197,47.3892 C22.7117,49.9402 19.2227,52.8212 16.0147,55.9852 C12.9827,58.9772 9.7637,62.2392 7.6787,65.9552 C2.3807,75.4002 -0.3403,85.3462 0.1387,95.8682 C0.4837,103.3912 1.9367,110.8942 5.7187,117.2872 C9.4607,123.6122 14.6517,129.2752 20.6217,133.5522 C26.7987,137.9762 33.9777,141.0662 41.6067,142.4382 C43.4127,142.7652 45.2497,142.8002 47.0477,143.0202 C49.0147,143.2622 51.0467,144.1312 52.8627,144.8282 C56.6717,146.2902 60.2737,148.2272 63.5567,150.5892 C66.4707,152.6842 69.2227,154.8782 71.6287,157.5522 C78.9447,165.6862 87.1817,174.4752 93.2637,183.5762 C95.9697,187.6252 98.1647,192.0632 101.9657,195.2692 C104.7287,197.6002 107.9277,198.8342 111.7277,198.2272 C115.1377,197.6822 118.3267,196.4122 121.2417,194.3892 C125.0127,191.7692 128.8127,189.1882 132.5827,186.5632 C135.9177,184.2412 139.3047,182.0092 142.0947,178.9512 C145.8517,174.8292 144.3367,169.3692 138.8247,168.8922 C135.1647,168.5752 130.6447,166.6042 128.3647,163.9762 C126.8697,162.2532 125.5007,160.4192 124.3417,158.4352 C118.5307,148.5012 113.6037,138.0612 108.1667,127.9132 C106.1547,124.1592 104.8317,120.1372 104.4827,115.8112 C104.1177,111.2902 104.4047,106.8712 107.1887,102.7012 C120.0997,83.3702 132.8967,63.9682 145.8337,44.6512 C147.0757,42.7952 146.8917,41.8332 145.5127,40.3882 C133.3197,27.6202 121.2177,14.7682 109.0797,1.9482" id="Fill-6" fill="#01D5B6" mask="url(#mask-2)"></path>
                    </g>
                    <path d="M477.8106,125.1224 L477.8106,73.3094 L433.7806,125.1224 L477.8106,125.1224 Z M477.8106,160.6104 L394.4806,160.6104 L394.4806,122.9884 L477.8106,23.9354 L517.6786,23.9354 L517.6786,125.1224 L538.3426,125.1224 L538.3426,160.6104 L517.6786,160.6104 L517.6786,191.3824 L477.8106,191.3824 L477.8106,160.6104 Z" id="Fill-9" fill="#01D5B6"></path>
                    <path d="M128.294,125.1224 L128.294,73.3094 L84.264,125.1224 L128.294,125.1224 Z M128.294,160.6104 L44.964,160.6104 L44.964,122.9884 L128.294,23.9354 L168.162,23.9354 L168.162,125.1224 L188.826,125.1224 L188.826,160.6104 L168.162,160.6104 L168.162,191.3824 L128.294,191.3824 L128.294,160.6104 Z" id="Fill-11" fill="#01D5B6"></path>
                    <path d="M444.4788,741.2392 C443.6058,740.6672 442.5768,740.3532 441.5328,740.2462 C439.1388,739.9992 438.0128,742.0472 436.4678,743.4452 C434.8598,744.9012 433.2098,746.3132 431.5218,747.6822 C428.2028,750.3742 424.7358,752.8972 421.1508,755.2502 C412.5508,760.8952 403.2798,765.5602 393.6448,769.3362 C393.3978,767.2762 393.1128,765.2212 392.8078,763.1682 C392.1328,756.0622 391.0998,748.9872 389.7298,741.9722 C393.6788,738.0022 397.1508,733.5572 400.0688,728.8412 C410.3588,712.2102 420.9358,692.6202 418.1208,671.7772 C417.4668,666.9332 412.1828,663.4542 406.8908,665.3902 C404.0118,666.4432 397.7408,672.0052 390.7908,678.8072 C389.5858,679.9872 388.3598,681.2032 387.1288,682.4402 C388.6168,679.1022 389.4538,675.6452 389.5738,672.1022 C397.4808,654.7982 400.2128,634.2342 400.2128,612.1702 C400.2128,581.5112 389.6668,553.7782 368.9898,533.6662 C372.8788,528.5832 377.6488,522.3482 377.6488,522.3482 C383.4198,521.8672 394.4638,520.7712 397.2238,514.4472 C398.9428,510.5072 398.1848,508.1372 396.1908,506.7922 C392.3508,504.2042 383.9268,505.4222 379.7818,506.5612 C381.4118,506.1142 384.1318,501.7272 385.2618,500.4202 C386.7738,498.6702 388.2778,496.9032 389.6328,495.0352 C391.4938,492.4682 393.3238,489.6032 394.0038,486.4942 C394.6448,483.5672 394.0498,479.5902 391.0278,477.9722 C379.8708,472.0102 369.0728,489.2002 364.2328,495.7832 C364.6678,495.1792 361.8008,491.6722 361.3228,491.2172 C354.9858,485.1912 345.6938,493.1962 348.6468,500.3912 L355.2138,509.7112 C353.2878,513.0202 351.5258,516.2442 350.0068,519.1272 C330.7698,507.6052 306.1048,500.9002 276.1618,500.9002 C257.7678,500.9002 242.0078,503.1702 228.5828,507.3292 L234.7028,498.6432 C237.4668,491.9092 229.4488,483.8562 222.7138,488.9542 C221.9768,489.5122 218.5588,493.2702 219.1178,494.0362 C214.1628,487.2802 203.8828,470.2532 192.7488,476.1862 C180.9538,482.4872 199.0258,500.1362 203.5678,504.8132 C199.4298,503.7272 190.9458,502.3892 187.0988,504.9602 C185.1228,506.2802 184.3718,508.6332 186.0618,512.5812 C188.2488,517.6872 195.6578,519.4302 201.5458,520.1762 C172.4538,540.1952 161.4168,573.9032 161.4168,612.1702 C161.4168,637.3202 165.6338,660.5212 177.2298,679.1662 C179.5638,686.6762 185.1588,693.6612 193.2768,699.7652 C193.1948,699.8782 193.1118,699.9902 193.0308,700.1042 L193.0308,700.0092 C193.0308,700.0092 171.0438,692.1462 153.3028,686.9922 C143.8218,684.2372 135.5528,682.2572 132.5028,682.6642 C126.8958,683.4122 123.9888,688.9082 125.8238,693.4622 C133.7198,713.0532 152.7428,725.3522 170.0428,735.1882 C172.4598,736.5622 174.9648,737.8112 177.5308,738.9312 C174.7408,748.8402 172.5468,758.8902 171.9248,769.1212 C171.4918,776.2422 171.8778,783.4902 173.2988,790.4932 C173.7968,801.9132 176.6188,813.2362 182.7478,822.9522 C188.9188,832.7332 197.7898,840.8132 208.0538,846.7992 C203.7578,848.1232 201.3808,849.5782 201.3808,851.1052 C201.3808,857.2462 239.7908,862.2252 287.1718,862.2252 C288.8858,862.2252 290.5858,862.2172 292.2748,862.2042 C298.8768,862.2682 305.4758,862.1142 312.1568,861.7452 C347.3498,860.3582 372.9618,856.1202 372.9618,851.1052 C372.9618,850.2862 372.2728,849.4882 370.9768,848.7202 C375.7048,845.8372 380.0318,842.3712 383.6878,838.2992 C387.0238,834.5842 389.4118,830.4712 391.1178,826.1122 C442.8878,802.0182 447.0108,751.5432 447.0108,751.5432 C447.5988,748.1602 447.8368,743.4382 444.4788,741.2392" id="Fill-13" fill-opacity="0.819999993" fill="#00846B"></path>
                    <path d="M225.1006,742.1277 C228.3246,742.1277 228.3246,737.1277 225.1006,737.1277 C221.8766,737.1277 221.8766,742.1277 225.1006,742.1277" id="Fill-15" fill="#FFFFFF"></path>
                    <path d="M351.197,785.2437 C351.223,785.0237 360.339,783.7037 360.9,783.5847 C369.069,781.8547 377.106,779.4657 384.909,776.4937 C395.563,772.4367 405.813,767.2527 415.244,760.8337 C418.766,758.4357 422.171,755.8667 425.432,753.1247 C427.09,751.7307 428.71,750.2917 430.29,748.8087 C431.807,747.3847 432.914,745.2987 435.265,745.5497 C436.29,745.6597 437.301,745.9797 438.159,746.5617 C441.457,748.8017 441.223,753.6117 440.646,757.0577 C440.646,757.0577 434.598,834.0467 344.134,844.5747 C344.134,844.5747 351.197,785.2477 351.197,785.2437" id="Fill-17" fill="#00C9A2"></path>
                    <path d="M188.8672,708.329 C184.8322,715.373 182.1492,723.397 179.7462,731.205 C175.3482,745.493 171.3102,760.038 170.4362,774.962 C169.5612,789.886 172.0542,805.364 179.9202,818.077 C191.7832,837.252 213.5002,849.896 235.8182,853.101 C272.2942,858.34 302.1982,858.936 338.0212,853.11 C352.6262,850.735 367.5402,843.801 377.4092,832.229 C389.0832,818.54 388.7292,799.726 388.2452,782.755 C387.6092,760.444 383.5422,738.242 376.6072,717.039 C374.1962,709.667 371.0272,701.91 364.4922,697.731 C360.3402,695.075 355.3272,694.211 350.4642,693.403 C312.2542,687.054 273.5462,680.683 234.9662,684.135 C222.0992,685.286 208.6552,687.829 198.7682,696.146 C194.6972,699.57 191.4952,703.742 188.8672,708.329" id="Fill-19" fill="#00D9B5"></path>
                    <path d="M394.6768,615.0954 C394.6768,677.7604 373.8268,728.5604 280.0018,728.5604 C184.8738,728.5604 160.1148,677.7604 160.1148,615.0954 C160.1148,552.4304 188.1228,501.7574 272.8258,501.7574 C352.9768,501.7574 394.6768,552.4304 394.6768,615.0954" id="Fill-21" fill="#00D9B5"></path>
                    <path d="M364.9874,832.1055 C358.8814,853.3485 325.7184,858.1615 277.3754,857.8775 C224.4014,857.5665 205.6854,839.0825 202.2164,828.9235 C185.2684,779.2945 236.9724,756.5605 284.4204,756.9165 C331.8674,757.2725 378.7264,784.3085 364.9874,832.1055" id="Fill-23" fill="#FFFFFF"></path>
                    <path d="M247.5991,845.7134 C247.5991,857.4274 238.9961,854.9744 228.3841,854.9744 C217.7721,854.9744 209.1691,857.4274 209.1691,845.7134 C209.1691,833.9994 217.7721,824.5034 228.3841,824.5034 C238.9961,824.5034 247.5991,833.9994 247.5991,845.7134" id="Fill-25" fill="#00D9B5"></path>
                    <path d="M356.2365,846.3069 C356.2365,858.0209 347.6335,855.5679 337.0215,855.5679 C326.4095,855.5679 317.8065,858.0209 317.8065,846.3069 C317.8065,834.5929 326.4095,825.0969 337.0215,825.0969 C347.6335,825.0969 356.2365,834.5929 356.2365,846.3069" id="Fill-27" fill="#00D9B5"></path>
                    <path d="M363.2697,610.0272 C363.2697,628.0492 348.2617,642.6592 329.7477,642.6592 C311.2337,642.6592 296.2247,628.0492 296.2247,610.0272 C296.2247,592.0052 311.2337,577.3952 329.7477,577.3952 C348.2617,577.3952 363.2697,592.0052 363.2697,610.0272" id="Fill-29" fill="#FFFFFF"></path>
                    <path d="M358.8756,610.1446 C358.8756,626.3036 345.6076,639.4036 329.2406,639.4036 C312.8736,639.4036 299.6056,626.3036 299.6056,610.1446 C299.6056,593.9856 312.8736,580.8856 329.2406,580.8856 C345.6076,580.8856 358.8756,593.9856 358.8756,610.1446" id="Fill-31" fill="#3A3A3A"></path>
                    <path d="M340.2328,609.009 C340.2328,617.313 333.5008,624.045 325.1968,624.045 C316.8928,624.045 310.1608,617.313 310.1608,609.009 C310.1608,600.705 316.8928,593.973 325.1968,593.973 C333.5008,593.973 340.2328,600.705 340.2328,609.009" id="Fill-33" fill="#FFFFFF"></path>
                    <path d="M185.6856,610.0272 C185.6856,628.0492 200.6936,642.6592 219.2076,642.6592 C237.7216,642.6592 252.7306,628.0492 252.7306,610.0272 C252.7306,592.0052 237.7216,577.3952 219.2076,577.3952 C200.6936,577.3952 185.6856,592.0052 185.6856,610.0272" id="Fill-35" fill="#FFFFFF"></path>
                    <path d="M190.0798,610.1446 C190.0798,626.3036 203.3478,639.4036 219.7148,639.4036 C236.0818,639.4036 249.3498,626.3036 249.3498,610.1446 C249.3498,593.9856 236.0818,580.8856 219.7148,580.8856 C203.3478,580.8856 190.0798,593.9856 190.0798,610.1446" id="Fill-37" fill="#3A3A3A"></path>
                    <path d="M208.7225,609.009 C208.7225,617.313 215.4545,624.045 223.7585,624.045 C232.0625,624.045 238.7945,617.313 238.7945,609.009 C238.7945,600.705 232.0625,593.973 223.7585,593.973 C215.4545,593.973 208.7225,600.705 208.7225,609.009" id="Fill-39" fill="#FFFFFF"></path>
                    <path d="M384.249,675.2418 C384.249,704.6888 337.283,728.5598 279.347,728.5598 C221.412,728.5598 174.446,704.6888 174.446,675.2418 C174.446,645.7948 221.412,621.9238 279.347,621.9238 C337.283,621.9238 384.249,645.7948 384.249,675.2418" id="Fill-41" fill="#5CFFE1"></path>
                    <path d="M381.4995,677.1813 C381.4995,682.6013 370.6955,686.9953 357.3675,686.9953 C344.0405,686.9953 333.2365,682.6013 333.2365,677.1813 C333.2365,671.7613 344.0405,667.3673 357.3675,667.3673 C370.6955,667.3673 381.4995,671.7613 381.4995,677.1813" id="Fill-43" fill="#FFC8D1"></path>
                    <path d="M226.3377,677.1813 C226.3377,682.6013 215.5337,686.9953 202.2057,686.9953 C188.8787,686.9953 178.0747,682.6013 178.0747,677.1813 C178.0747,671.7613 188.8787,667.3673 202.2057,667.3673 C215.5337,667.3673 226.3377,671.7613 226.3377,677.1813" id="Fill-45" fill="#FFC8D1"></path>
                    <path d="M261.7027,643.2544 C261.7027,645.9514 259.5157,648.1384 256.8187,648.1384 C254.1217,648.1384 251.9347,645.9514 251.9347,643.2544 C251.9347,640.5574 254.1217,638.3704 256.8187,638.3704 C259.5157,638.3704 261.7027,640.5574 261.7027,643.2544" id="Fill-47" fill="#733708"></path>
                    <path d="M304.8327,643.2544 C304.8327,645.9514 302.6457,648.1384 299.9487,648.1384 C297.2517,648.1384 295.0647,645.9514 295.0647,643.2544 C295.0647,640.5574 297.2517,638.3704 299.9487,638.3704 C302.6457,638.3704 304.8327,640.5574 304.8327,643.2544" id="Fill-49" fill="#733708"></path>
                    <polygon id="Fill-51" fill="#00B494" points="194.423 746.8081 204.614 735.2281 209.169 752.8301"></polygon>
                    <polygon id="Fill-53" fill="#00B494" points="187.0114 767.653 187.0114 782.626 199.0554 775.139"></polygon>
                    <polygon id="Fill-55" fill="#00B494" points="347.7485 737.5438 355.7395 728.5598 360.2555 744.0288"></polygon>
                    <polygon id="Fill-57" fill="#00B494" points="360.2554 770.2105 370.4464 757.4625 372.7624 773.2115"></polygon>
                    <path d="M185.3415,505.8933 C189.1195,503.2743 197.4535,504.6373 201.5185,505.7433 C197.0565,500.9793 179.3045,483.0033 190.8915,476.5853 C201.8275,470.5423 211.9255,487.8853 216.7925,494.7663 C216.2425,493.9863 219.6005,490.1583 220.3245,489.5903 C226.9395,484.3973 234.8165,492.6003 232.1015,499.4593 L225.6505,508.9533 C231.8215,519.9443 236.2905,530.0423 236.2905,530.0423 C229.6875,545.0983 216.9665,539.9233 216.9665,539.9233 C216.9665,539.9233 203.6135,521.8243 203.6125,521.8243 C197.8695,521.3283 187.0265,520.2033 184.3225,513.6563 C182.6625,509.6353 183.4005,507.2383 185.3415,505.8933" id="Fill-59" fill="#F3C62B"></path>
                    <polygon id="Fill-61" fill="#00D9B5" points="283.917 831.8789 266.846 816.5579 270.186 812.8369 287.257 828.1579"></polygon>
                    <polygon id="Fill-63" fill="#00D9B5" points="270.1855 831.8789 266.8455 828.1579 283.9165 812.8369 287.2565 816.5579"></polygon>
                    <path d="M390.7269,507.7602 C386.9549,505.1242 378.6799,506.3642 374.6079,507.5242 C376.2099,507.0692 378.8809,502.6002 379.9909,501.2692 C381.4769,499.4872 382.9539,497.6872 384.2839,495.7852 C386.1129,493.1702 387.9099,490.2512 388.5789,487.0842 C389.2079,484.1032 388.6239,480.0522 385.6549,478.4052 C374.6959,472.3312 364.0899,489.8402 359.3349,496.5462 C359.7619,495.9312 356.9459,492.3582 356.4769,491.8952 C350.2519,485.7572 341.1249,493.9112 344.0259,501.2402 L350.4759,510.7332 C344.3049,521.7252 339.8359,531.8232 339.8359,531.8232 C346.4399,546.8792 359.1599,541.7042 359.1599,541.7042 L372.5139,523.6052 C378.1819,523.1152 389.0299,521.9992 391.7409,515.5562 C393.4299,511.5432 392.6859,509.1292 390.7269,507.7602" id="Fill-65" fill="#F3C62B"></path>
                    <path d="M290.2932,541.9873 C290.2912,541.8863 290.2762,541.7883 290.2632,541.6883 C290.2522,541.6103 290.2472,541.5313 290.2312,541.4563 C290.2112,541.3683 290.1792,541.2833 290.1502,541.1973 C290.1242,541.1163 290.1022,541.0343 290.0682,540.9573 C290.0342,540.8793 289.9882,540.8083 289.9472,540.7333 C289.9032,540.6543 289.8622,540.5733 289.8112,540.4993 C289.7662,540.4363 289.7122,540.3783 289.6612,540.3183 C289.5972,540.2413 289.5342,540.1633 289.4622,540.0943 C289.4482,540.0813 289.4392,540.0653 289.4252,540.0533 C289.3802,540.0113 289.3282,539.9823 289.2802,539.9443 C289.2032,539.8823 289.1272,539.8203 289.0432,539.7663 C288.9712,539.7203 288.8952,539.6833 288.8192,539.6453 C288.7392,539.6043 288.6602,539.5633 288.5762,539.5303 C288.4912,539.4973 288.4052,539.4733 288.3182,539.4493 C288.2362,539.4273 288.1562,539.4023 288.0712,539.3883 C287.9732,539.3703 287.8752,539.3643 287.7762,539.3583 C287.7152,539.3543 287.6582,539.3403 287.5962,539.3403 C287.5782,539.3403 287.5602,539.3453 287.5412,539.3453 C287.4412,539.3473 287.3422,539.3623 287.2422,539.3753 C287.1642,539.3863 287.0862,539.3913 287.0102,539.4073 C286.9222,539.4273 286.8382,539.4593 286.7512,539.4883 C286.6712,539.5143 286.5882,539.5363 286.5112,539.5703 C286.4342,539.6043 286.3622,539.6503 286.2872,539.6913 C286.2082,539.7363 286.1282,539.7763 286.0542,539.8273 C285.9902,539.8723 285.9332,539.9263 285.8732,539.9773 C285.7952,540.0413 285.7182,540.1043 285.6482,540.1763 C285.6352,540.1903 285.6202,540.1993 285.6072,540.2133 L272.1432,554.1373 C271.1332,555.2353 271.2052,556.9453 272.3032,557.9553 C273.4022,558.9653 275.1112,558.8933 276.1212,557.7943 L284.8942,548.5763 L284.8942,559.8823 C284.8942,561.3743 286.1042,562.5843 287.5962,562.5843 C289.0892,562.5843 290.2982,561.3743 290.2982,559.8823 L290.2982,542.0423 C290.2982,542.0233 290.2932,542.0063 290.2932,541.9873" id="Fill-67" fill="#5CFFE1"></path>
                    <path d="M272.5646,551.6272 L276.3376,547.7702 C276.2646,547.6642 268.3786,540.2132 268.3786,540.2132 C268.3656,540.1992 268.3496,540.1902 268.3376,540.1762 C268.2676,540.1042 268.1906,540.0412 268.1136,539.9772 C268.0526,539.9272 267.9956,539.8722 267.9316,539.8272 C267.8576,539.7762 267.7776,539.7362 267.6986,539.6922 C267.6236,539.6502 267.5516,539.6042 267.4746,539.5702 C267.3976,539.5362 267.3156,539.5152 267.2346,539.4882 C267.1486,539.4602 267.0636,539.4272 266.9756,539.4072 C266.8996,539.3912 266.8216,539.3862 266.7436,539.3752 C266.6436,539.3622 266.5446,539.3472 266.4436,539.3452 C266.4256,539.3452 266.4076,539.3402 266.3896,539.3402 C266.3276,539.3402 266.2706,539.3542 266.2096,539.3582 C266.1106,539.3642 266.0126,539.3702 265.9146,539.3882 C265.8296,539.4032 265.7496,539.4272 265.6676,539.4502 C265.5806,539.4742 265.4946,539.4972 265.4096,539.5302 C265.3256,539.5632 265.2466,539.6042 265.1666,539.6452 C265.0906,539.6842 265.0146,539.7202 264.9426,539.7662 C264.8586,539.8202 264.7826,539.8822 264.7046,539.9442 C264.6576,539.9822 264.6056,540.0112 264.5606,540.0532 C264.5466,540.0652 264.5376,540.0812 264.5236,540.0942 C264.4506,540.1632 264.3886,540.2412 264.3236,540.3192 C264.2736,540.3792 264.2186,540.4362 264.1746,540.4992 C264.1236,540.5732 264.0826,540.6542 264.0386,540.7342 C263.9976,540.8082 263.9516,540.8802 263.9176,540.9572 C263.8836,541.0342 263.8616,541.1172 263.8346,541.1982 C263.8066,541.2842 263.7746,541.3682 263.7546,541.4552 C263.7376,541.5312 263.7326,541.6112 263.7226,541.6892 C263.7096,541.7882 263.6946,541.8872 263.6926,541.9872 C263.6926,542.0062 263.6876,542.0232 263.6876,542.0422 L263.6876,559.8822 C263.6876,561.3742 264.8966,562.5842 266.3896,562.5842 C267.8816,562.5842 269.0916,561.3742 269.0916,559.8822 L269.0916,548.5762 L272.5646,551.6272 Z" id="Fill-69" fill="#5CFFE1"></path>
                    <path d="M325.626,564.2666 C325.507,564.2666 325.387,564.2626 325.266,564.2536 C310.773,563.2246 300.674,556.5826 300.251,556.3006 C297.954,554.7666 297.335,551.6626 298.868,549.3656 C300.398,547.0716 303.494,546.4526 305.79,547.9746 C305.939,548.0716 314.278,553.4486 325.975,554.2796 C328.73,554.4746 330.804,556.8666 330.608,559.6206 C330.421,562.2546 328.226,564.2666 325.626,564.2666" id="Fill-71" fill="#3A3A3A"></path>
                    <path d="M227.6006,567.6074 C225.1866,567.6074 223.0626,565.8554 222.6696,563.3954 C222.2336,560.6684 224.0916,558.1044 226.8186,557.6694 C238.4446,555.8124 246.2996,549.6864 246.3766,549.6244 C248.5376,547.9154 251.6806,548.2724 253.3966,550.4264 C255.1126,552.5814 254.7696,555.7124 252.6206,557.4364 C252.2246,557.7544 242.7426,565.2524 228.3956,567.5444 C228.1286,567.5864 227.8626,567.6074 227.6006,567.6074" id="Fill-73" fill="#3A3A3A"></path>
                    <polygon id="Fill-75" fill="#01D5B6" points="254.9871 656.9238 300.1511 656.9808 308.9631 714.1818 246.0851 714.1818"></polygon>
                    <polygon id="Fill-77" fill="#02C4A4" points="249.3189 651.3146 303.3309 651.3826 315.4299 719.7906 238.6729 719.7906"></polygon>
                </g>
                <g id="Group-85" transform="translate(443.000000, 651.846000)">
                    <g id="Group-82" transform="translate(0.000000, 25.000000)">
                        <mask id="mask-4" fill="white">
                            <use xlink:href="#path-3"></use>
                        </mask>
                        <g id="Clip-81"></g>
                        <path d="M87.0934,30.4538 C87.0934,46.7348 65.2704,59.9328 38.3504,59.9328 C11.4294,59.9328 -10.3936,46.7348 -10.3936,30.4538 C-10.3936,14.1728 11.4294,0.9748 38.3504,0.9748 C65.2704,0.9748 87.0934,14.1728 87.0934,30.4538" id="Fill-80" fill="#13E2BF" mask="url(#mask-4)"></path>
                    </g>
                    <mask id="mask-6" fill="white">
                        <use xlink:href="#path-5"></use>
                    </mask>
                    <g id="Clip-84"></g>
                    <polygon id="Fill-83" fill="#FFFFFF" mask="url(#mask-6)" points="8.8 7.125 67.743 7.125 67.743 0.314 8.8 0.314"></polygon>
                </g>
                <g id="Group-96" transform="translate(329.000000, 166.846000)">
                    <path d="M233.5366,547.3197 C233.5366,547.3197 248.6476,529.9347 261.4216,516.9707 C268.2486,510.0427 274.4086,504.3767 277.2366,503.3037 C282.4356,501.3317 287.6256,504.8747 288.2686,509.8097 C291.0326,531.0397 280.6426,550.9937 270.5356,567.9337 C267.4516,573.1037 263.7446,577.9597 259.4926,582.2297 C255.2256,586.5147 233.5366,547.3197 233.5366,547.3197" id="Fill-86" fill="#00D9B5"></path>
                    <path d="M67.1683,538.5661 C67.1683,538.5661 45.5703,530.5571 28.1443,525.3071 C18.8313,522.5011 10.7093,520.4841 7.7133,520.8981 C2.2053,521.6601 -0.6497,527.2591 1.1523,531.8971 C8.9083,551.8521 27.5933,564.3801 44.5873,574.3981 C49.7723,577.4551 55.3543,579.9391 61.1333,581.6471 C66.9323,583.3621 67.1683,538.5661 67.1683,538.5661" id="Fill-88" fill="#00D9B5"></path>
                    <path d="M324.0303,647.1055 C325.0933,647.6995 326.1743,648.2835 327.2683,648.8555 C354.1323,662.9115 372.7613,658.0375 389.5403,651.8415 C399.4703,648.1735 407.1923,634.5195 404.8393,624.7865 C402.1623,613.7145 387.0213,609.0125 363.2993,611.8875 C343.5673,614.2785 324.5213,631.3755 324.0303,647.1055 M416.2253,698.5705 C399.1373,698.5705 384.4363,697.5455 374.6453,695.8345 C352.9243,692.0385 336.3553,685.6735 325.3983,676.9155 C316.5883,669.8735 312.5803,662.2785 310.9663,655.6405 C282.0013,637.5045 264.0403,611.4475 258.7813,579.7075 C255.1963,558.0655 257.6943,534.2805 266.0053,510.9245 C273.6333,489.4905 286.0983,468.9965 301.1053,453.2205 L311.2493,462.8695 C281.8903,493.7345 266.3553,539.7685 272.5933,577.4185 C276.7173,602.3135 289.9423,623.2715 311.1763,638.8675 C316.3153,618.9945 337.8833,600.8655 361.6143,597.9895 C377.9223,596.0125 391.1423,597.2095 400.9053,601.5435 C412.6813,606.7725 416.9443,615.2795 418.4473,621.4965 C422.4653,638.1175 410.9983,658.8405 394.3903,664.9745 C377.9363,671.0495 359.7093,675.3085 337.1363,668.1565 C346.1853,674.2415 359.7083,679.0125 377.0553,682.0435 C415.3563,688.7345 551.4683,685.7935 587.5353,629.9865 C603.5893,605.1475 597.6903,571.8665 570.0013,531.0715 C521.4213,459.4925 489.9233,391.3965 462.1333,331.3165 C455.7693,317.5585 449.7593,304.5635 443.6973,291.8445 C431.8663,267.0185 421.1683,243.9995 410.8223,221.7385 C363.0583,118.9715 331.5043,51.0795 290.4273,25.7105 C273.6793,15.3675 262.9123,14.1195 245.1093,15.2395 C243.9283,15.3135 240.2553,16.2515 237.3043,17.0055 C226.0813,19.8725 218.9163,21.4395 214.0493,19.0325 L220.2533,6.4825 C219.7863,6.2515 219.4703,6.2035 219.4673,6.2035 C221.7223,6.5325 229.9063,4.4455 233.8393,3.4405 C238.7363,2.1895 241.8583,1.4165 244.2313,1.2665 C264.2523,0.0105 278.0333,1.6015 297.7833,13.7995 C342.4313,41.3735 374.6893,110.7785 423.5173,215.8385 C433.8493,238.0685 444.5333,261.0565 456.3353,285.8215 C462.4313,298.6125 468.4593,311.6435 474.8403,325.4385 C502.4053,385.0325 533.6473,452.5775 581.5853,523.2095 C612.7293,569.0965 618.6873,607.5785 599.2943,637.5855 C586.9223,656.7285 557.1053,681.9335 485.3113,693.3015 C461.8023,697.0235 437.2143,698.5705 416.2253,698.5705" id="Fill-90" fill="#01D5B6"></path>
                    <path d="" id="Fill-92" fill="#01D5B6"></path>
                    <path d="M325.8972,471.3242 C321.1502,476.2002 314.8802,477.7952 311.8922,474.8862 L287.7292,451.3642 C284.7422,448.4552 286.1682,442.1452 290.9142,437.2692 L312.8912,414.6942 C317.6382,409.8172 323.9082,408.2232 326.8962,411.1312 L351.0592,434.6542 C354.0472,437.5622 352.6212,443.8732 347.8742,448.7492 L325.8972,471.3242 Z" id="Fill-94" fill="#01D5B6"></path>
                </g>
                <g id="Group-99" transform="translate(642.000000, 602.846000)">
                    <mask id="mask-8" fill="white">
                        <use xlink:href="#path-7"></use>
                    </mask>
                    <g id="Clip-98"></g>
                    <path d="M12.7414,35.3202 C7.9404,40.1422 1.6524,41.6672 -1.3026,38.7252 L-25.1996,14.9332 C-28.1546,11.9912 -26.6586,5.6972 -21.8576,0.8752 L0.3714,-21.4528 C5.1724,-26.2748 11.4604,-27.7998 14.4154,-24.8578 L38.3124,-1.0658 C41.2674,1.8762 39.7714,8.1702 34.9704,12.9922 L12.7414,35.3202 Z" id="Fill-97" fill="#05C9A8" mask="url(#mask-8)"></path>
                </g>
                <g id="Group-102" transform="translate(643.000000, 575.846000)">
                    <mask id="mask-10" fill="white">
                        <use xlink:href="#path-9"></use>
                    </mask>
                    <g id="Clip-101"></g>
                    <path d="M11.6483,63.0263 C6.8113,67.9953 0.4503,69.6483 -2.5597,66.7183 L-26.9017,43.0213 C-29.9117,40.0913 -28.4297,33.6883 -23.5927,28.7193 L-1.1967,5.7143 C3.6403,0.7453 10.0013,-0.9077 13.0113,2.0223 L37.3523,25.7183 C40.3623,28.6483 38.8813,35.0523 34.0443,40.0213 L11.6483,63.0263 Z" id="Fill-100" fill="#02B593" mask="url(#mask-10)"></path>
                </g>
                <g id="Group-109" transform="translate(248.000000, 570.846000)">
                    <path d="M415.6522,15.5553 C414.0842,17.1653 412.3902,18.0583 411.8672,17.5493 L407.6392,13.4333 C407.1162,12.9243 407.9632,11.2063 409.5312,9.5963 L416.7892,2.1403 C418.3572,0.5293 420.0512,-0.3637 420.5742,0.1453 L424.8022,4.2613 C425.3252,4.7703 424.4782,6.4893 422.9102,8.0993 L415.6522,15.5553 Z" id="Fill-103" fill="#CECECE"></path>
                    <path d="M429.0252,28.8619 C427.4572,30.4719 425.7632,31.3649 425.2402,30.8559 L421.0122,26.7399 C420.4892,26.2309 421.3362,24.5129 422.9042,22.9029 L430.1622,15.4469 C431.7302,13.8359 433.4242,12.9429 433.9472,13.4519 L438.1752,17.5679 C438.6982,18.0769 437.8512,19.7959 436.2832,21.4059 L429.0252,28.8619 Z" id="Fill-105" fill="#CECECE"></path>
                    <path d="M59.8479,61.9235 C65.6689,65.4475 68.6369,71.1965 66.4779,74.7635 L49.0129,103.6095 C46.8529,107.1765 40.3839,107.2115 34.5619,103.6865 L7.6109,87.3695 C1.7899,83.8445 -1.1781,78.0965 0.9809,74.5295 L18.4469,45.6825 C20.6059,42.1155 27.0759,42.0815 32.8969,45.6055 L59.8479,61.9235 Z" id="Fill-107" fill="#01D5B6"></path>
                </g>
                <g id="Group-112" transform="translate(266.000000, 612.846000)">
                    <mask id="mask-12" fill="white">
                        <use xlink:href="#path-11"></use>
                    </mask>
                    <g id="Clip-111"></g>
                    <path d="M41.8791,20.0762 C47.6601,23.6652 50.5641,29.4472 48.3651,32.9892 L30.5771,61.6382 C28.3781,65.1812 21.9081,65.1432 16.1271,61.5532 L-10.6399,44.9342 C-16.4209,41.3452 -19.3249,35.5642 -17.1249,32.0212 L0.6621,3.3722 C2.8621,-0.1698 9.3311,-0.1318 15.1121,3.4572 L41.8791,20.0762 Z" id="Fill-110" fill="#05C9A8" mask="url(#mask-12)"></path>
                </g>
                <g id="Group-115" transform="translate(248.000000, 612.846000)">
                    <mask id="mask-14" fill="white">
                        <use xlink:href="#path-13"></use>
                    </mask>
                    <g id="Clip-114"></g>
                    <path d="M60.588,20.0076 C66.52,23.5996 69.565,29.4236 67.39,33.0166 L49.796,62.0766 C47.62,65.6696 41.048,65.6706 35.116,62.0796 L7.651,45.4506 C1.719,41.8596 -1.326,36.0346 0.849,32.4416 L18.443,3.3816 C20.619,-0.2114 27.191,-0.2124 33.123,3.3796 L60.588,20.0076 Z" id="Fill-113" fill="#02B593" mask="url(#mask-14)"></path>
                </g>
                <g id="Group-134" transform="translate(0.000000, 380.846000)">
                    <path d="M259.0729,257.3071 C259.3159,257.4541 259.2069,258.0801 258.8289,258.7041 L255.7729,263.7521 C255.3949,264.3761 254.8919,264.7621 254.6479,264.6151 L253.5219,263.9331 C253.2779,263.7851 253.3869,263.1601 253.7649,262.5361 L256.8209,257.4881 C257.1989,256.8641 257.7029,256.4771 257.9459,256.6251 L259.0729,257.3071 Z" id="Fill-116" fill="#3E3A39"></path>
                    <path d="M269.4431,241.7119 C269.7271,241.8839 269.6521,242.5299 269.2741,243.1539 L266.2181,248.2019 C265.8401,248.8259 265.3031,249.1919 265.0181,249.0199 L263.7011,248.2229 C263.4171,248.0499 263.4931,247.4049 263.8711,246.7809 L266.9271,241.7329 C267.3051,241.1089 267.8421,240.7419 268.1261,240.9149 L269.4431,241.7119 Z" id="Fill-118" fill="#3E3A39"></path>
                    <path d="M228.186,556 C226.106,556 224.007,555.962 221.883,555.885 C186.721,554.609 146.391,542.568 111.234,522.848 C90.1,510.994 72.463,499.544 56.902,489.443 C36.689,476.322 19.233,464.99 0,456.412 L5.702,443.625 C25.937,452.65 43.819,464.259 64.525,477.7 C79.908,487.686 97.344,499.004 118.082,510.638 C151.362,529.304 189.38,540.697 222.391,541.894 C224.415,541.967 226.42,542.004 228.393,542.004 C266.175,542.006 294.505,528.567 312.672,502.009 C346.206,452.987 352.145,408.495 351.223,379.804 C350.431,355.174 343.102,321.702 324.908,301.619 C318.572,294.626 302.222,285.986 296.456,283.247 L302.464,270.601 C304.842,271.731 325.967,281.937 335.283,292.22 C352.897,311.661 364.086,344.234 365.216,379.354 C366.205,410.133 359.897,457.768 324.228,509.913 C303.55,540.141 270.43,555.999 228.186,556" id="Fill-120" fill="#01D5B6"></path>
                    <polygon id="Fill-122" fill="#FFFFFF" points="621.2689 231.652 619.2769 229.724 642.1959 206.039 644.1879 207.967"></polygon>
                    <polygon id="Fill-124" fill="#FFFFFF" points="259.2027 276.4826 260.6387 274.1116 288.8297 291.1866 287.3927 293.5586"></polygon>
                    <path d="M639.9912,22.9946 L646.5692,26.6786 C647.2022,27.0336 647.6852,27.6046 647.9282,28.2866 L649.9492,33.9446 L652.0932,27.9336 C652.3662,27.1666 652.9402,26.5436 653.6812,26.2076 L659.7732,23.4516 L654.2352,21.7126 C653.2962,21.4176 652.5622,20.6816 652.2692,19.7426 L650.1512,12.9426 L647.4502,19.9316 C647.0912,20.8616 646.2932,21.5516 645.3212,21.7746 L639.9912,22.9946 Z M649.9522,45.8706 C648.6842,45.8706 647.5532,45.0746 647.1272,43.8806 L642.6572,31.3646 L630.2662,24.4256 C629.1842,23.8186 628.5862,22.6086 628.7622,21.3806 C628.9392,20.1526 629.8532,19.1606 631.0632,18.8836 L642.4282,16.2816 L647.6562,2.7526 C648.1162,1.5626 649.2572,0.7836 650.5542,0.8356 C651.8302,0.8786 652.9392,1.7236 653.3192,2.9416 L657.5312,16.4586 L669.0702,20.0816 C670.2572,20.4546 671.0912,21.5216 671.1662,22.7636 C671.2412,24.0056 670.5412,25.1646 669.4082,25.6776 L657.3162,31.1486 L652.7782,43.8786 C652.3522,45.0736 651.2212,45.8706 649.9532,45.8706 L649.9522,45.8706 Z" id="Fill-126" fill-opacity="0.2" fill="#0581D6"></path>
                    <path d="M287.2124,58.6299 L291.2594,60.8969 C291.8924,61.2509 292.3754,61.8219 292.6194,62.5049 L293.7224,65.5939 L294.9254,62.2179 C295.1994,61.4509 295.7734,60.8279 296.5144,60.4919 L300.0974,58.8719 L297.0264,57.9069 C296.0884,57.6119 295.3544,56.8769 295.0614,55.9379 L293.8284,51.9799 L292.2264,56.1269 C291.8664,57.0559 291.0684,57.7469 290.0974,57.9689 L287.2124,58.6299 Z M293.7254,77.5199 C292.4574,77.5199 291.3264,76.7229 290.9004,75.5289 L287.3474,65.5819 L277.4884,60.0599 C276.4054,59.4539 275.8084,58.2439 275.9844,57.0159 C276.1614,55.7879 277.0754,54.7959 278.2844,54.5189 L287.2044,52.4769 L291.3344,41.7899 C291.7934,40.5999 292.9364,39.8249 294.2324,39.8729 C295.5074,39.9159 296.6164,40.7599 296.9964,41.9789 L300.3224,52.6529 L309.3954,55.5019 C310.5824,55.8749 311.4154,56.9419 311.4904,58.1839 C311.5654,59.4249 310.8664,60.5849 309.7334,61.0979 L300.1494,65.4339 L296.5504,75.5269 C296.1254,76.7209 294.9944,77.5189 293.7264,77.5199 L293.7254,77.5199 Z" id="Fill-128" fill-opacity="0.2" fill="#0581D6"></path>
                    <path d="M273.8496,152.6528 C274.3736,152.6528 274.8926,152.7908 275.3526,153.0568 L275.7246,153.2718 L275.4926,152.6548 C275.2046,151.8928 275.2396,151.0468 275.5886,150.3108 L276.0416,149.3568 L275.5656,149.5568 C274.6596,149.9388 273.6226,149.8528 272.7926,149.3248 L271.9196,148.7698 L272.3326,149.9618 C272.6606,150.9038 272.4976,151.9458 271.9006,152.7438 L271.6966,153.0158 L273.2766,152.7078 C273.4666,152.6708 273.6586,152.6528 273.8496,152.6528 M281.4956,163.0808 C280.9796,163.0808 280.4606,162.9478 279.9936,162.6768 L273.3196,158.8128 L265.2026,160.3928 C263.9836,160.6318 262.7456,160.0928 262.0876,159.0418 C261.4286,157.9908 261.4836,156.6428 262.2276,155.6498 L266.1416,150.4238 L263.4296,142.6078 C263.0106,141.4018 263.4006,140.0628 264.4016,139.2708 C265.4016,138.4798 266.7946,138.4068 267.8716,139.0908 L274.6836,143.4178 L280.9566,140.7768 C282.1056,140.2908 283.4296,140.5688 284.2896,141.4668 C285.1496,142.3658 285.3656,143.7028 284.8316,144.8268 L281.5566,151.7318 L284.3036,159.0228 C284.7506,160.2088 284.4036,161.5488 283.4366,162.3688 C282.8816,162.8398 282.1906,163.0808 281.4956,163.0808" id="Fill-130" fill-opacity="0.2" fill="#0581D6"></path>
                    <path d="M764.5381,212.0396 L768.1291,214.0506 C768.7621,214.4056 769.2451,214.9766 769.4891,215.6596 L770.4261,218.2846 L771.4601,215.3846 C771.7341,214.6176 772.3081,213.9946 773.0491,213.6586 L776.1801,212.2426 L773.5551,211.4176 C772.6161,211.1226 771.8821,210.3876 771.5891,209.4486 L770.5161,206.0026 L769.1111,209.6376 C768.7521,210.5666 767.9541,211.2576 766.9821,211.4796 L764.5381,212.0396 Z M770.4291,230.2116 C769.1611,230.2116 768.0301,229.4146 767.6041,228.2206 L764.2171,218.7366 L754.8131,213.4706 C753.7301,212.8636 753.1331,211.6536 753.3091,210.4256 C753.4861,209.1976 754.4001,208.2056 755.6091,207.9286 L764.0891,205.9876 L768.0211,195.8116 C768.4811,194.6226 769.6301,193.8466 770.9201,193.8946 C772.1951,193.9376 773.3041,194.7826 773.6841,196.0006 L776.8511,206.1646 L785.4781,208.8726 C786.6651,209.2466 787.4981,210.3126 787.5741,211.5546 C787.6481,212.7966 786.9491,213.9556 785.8161,214.4686 L776.6841,218.6006 L773.2551,228.2186 C772.8291,229.4136 771.6981,230.2106 770.4301,230.2116 L770.4291,230.2116 Z" id="Fill-132" fill-opacity="0.2" fill="#0581D6"></path>
                </g>
            </g>
            <text id="哎呀呀，断电啦…" font-family="STHeitiSC-Light, Heiti SC" font-size="30" font-weight="300" letter-spacing="-0.625364602" fill="#999999">
                <tspan x="131" y="467">哎呀呀，断电啦…</tspan>
            </text>
            <path d="M240.601562,227.853516 C240.601562,226.611328 214.134766,226.611328 214.134766,226.611328 L187.929688,258.855469 C187.929688,258.855469 214.134766,226.611328 240.601562,227.853516 Z" id="Path-77" fill="#FFFFFF"></path>
            <path d="M589.671875,228.242188 C589.671875,227 563.205078,227 563.205078,227 L537,259.244141 C537,259.244141 563.205078,227 589.671875,228.242188 Z" id="Path-77-Copy" fill="#FFFFFF"></path>
            <path d="M132.736328,324.751953 L132.347656,354.773438 C132.347656,354.773438 162.943359,355.884766 166.314453,355.884766 C132.347656,355.884766 132.736328,324.751953 132.736328,324.751953 Z" id="Path-78" fill="#FFFFFF"></path>
            <path d="M481.388672,325 L481,355.021484 C481,355.021484 511.595703,356.132812 514.966797,356.132812 C481,356.132812 481.388672,325 481.388672,325 Z" id="Path-78-Copy-3" fill="#FFFFFF"></path>
            <path d="M232.201407,372 L232,387.55693 C232,387.55693 247.854486,388.132812 249.601364,388.132812 C232,388.132812 232.201407,372 232.201407,372 Z" id="Path-78-Copy" fill="#FFFFFF" transform="translate(240.800682, 380.066406) scale(-1, 1) translate(-240.800682, -380.066406) "></path>
            <path d="M401.815158,384.939359 L401.753205,389.724674 C401.716497,392.56009 403.987514,394.941054 406.818006,395.040092 C406.818006,395.040092 411.795754,395.225839 412.909584,395.225839 C401.686738,395.225839 401.815158,384.939359 401.815158,384.939359 Z" id="Path-78-Copy-6" fill="#FFFFFF" transform="translate(407.298161, 390.082599) rotate(-26.000000) translate(-407.298161, -390.082599) "></path>
            <path d="M581.201407,372 L581,387.55693 C581,387.55693 596.854486,388.132812 598.601364,388.132812 C581,388.132812 581.201407,372 581.201407,372 Z" id="Path-78-Copy-4" fill="#FFFFFF" transform="translate(589.800682, 380.066406) scale(-1, 1) translate(-589.800682, -380.066406) "></path>
            <path d="M260.698342,327.415675 L260.584325,336.222479 C260.584325,336.222479 269.559577,336.548487 270.548487,336.548487 C260.584325,336.548487 260.698342,327.415675 260.698342,327.415675 Z" id="Path-78-Copy-2" fill="#FFFFFF" transform="translate(265.566406, 331.982081) scale(-1, 1) rotate(90.000000) translate(-265.566406, -331.982081) "></path>
            <path d="M609.698342,327.415675 L609.584325,336.222479 C609.584325,336.222479 618.559577,336.548487 619.548487,336.548487 C609.584325,336.548487 609.698342,327.415675 609.698342,327.415675 Z" id="Path-78-Copy-5" fill="#FFFFFF" transform="translate(614.566406, 331.982081) scale(-1, 1) rotate(90.000000) translate(-614.566406, -331.982081) "></path>
            <polygon id="Path-85" fill="#FFFFFF" points="402.699219 204.517578 330.302734 244.910156 407.607422 208.074219"></polygon>
            <text id="程序猿哥哥正在抢修!" font-family="STHeitiSC-Light, Heiti SC" font-size="30" font-weight="300" letter-spacing="-0.625364661" fill="#999999">
                <tspan x="131" y="506.035838">程序猿哥哥正在抢修!</tspan>
            </text>
        </g>
    </g>
</svg>